<svg width="9" height="18" viewBox="0 0 9 18" fill="none" xmlns="http://www.w3.org/2000/svg">
<path d="M7.50775 17.1645C7.77805 17.1651 8.04001 17.0703 8.24815 16.8968C8.36529 16.7991 8.46212 16.6791 8.5331 16.5436C8.60407 16.4082 8.6478 16.26 8.66177 16.1075C8.67574 15.9551 8.65968 15.8013 8.61451 15.6551C8.56934 15.5089 8.49595 15.3731 8.39854 15.2554L3.21574 9.01595L8.21344 2.76481C8.30954 2.64574 8.3813 2.50873 8.4246 2.36166C8.46791 2.21459 8.4819 2.06036 8.46577 1.90783C8.44965 1.7553 8.40372 1.60748 8.33064 1.47287C8.25755 1.33826 8.15875 1.21951 8.03991 1.12345C7.92021 1.01747 7.78004 0.937537 7.62818 0.888659C7.47633 0.83978 7.31607 0.823013 7.15747 0.839409C6.99887 0.855805 6.84535 0.90501 6.70655 0.983937C6.56774 1.06286 6.44665 1.16981 6.35087 1.29806L0.763163 8.28257C0.593008 8.49087 0.499989 8.75214 0.499989 9.02177C0.499989 9.2914 0.593008 9.55267 0.763163 9.76096L6.54754 16.7455C6.66359 16.8863 6.81102 16.9977 6.97785 17.0705C7.14468 17.1433 7.32622 17.1755 7.50775 17.1645Z" fill="#fff"/>
</svg>
