<svg xmlns="http://www.w3.org/2000/svg" style="display: none;">
    <symbol viewBox="0 0 320 512" id="i-facebook">
    	<path d="M279.14 288l14.22-92.66h-88.91v-60.13c0-25.35 12.42-50.06 52.24-50.06h40.42V6.26S260.43 0 225.36 0c-73.22 0-121.08 44.38-121.08 124.72v70.62H22.89V288h81.39v224h100.17V288z"/>
    </symbol>
    <symbol viewBox="0 0 448 512" id="i-instagram">
    	<path d="M224.1 141c-63.6 0-114.9 51.3-114.9 114.9s51.3 114.9 114.9 114.9S339 319.5 339 255.9 287.7 141 224.1 141zm0 189.6c-41.1 0-74.7-33.5-74.7-74.7s33.5-74.7 74.7-74.7 74.7 33.5 74.7 74.7-33.6 74.7-74.7 74.7zm146.4-194.3c0 14.9-12 26.8-26.8 26.8-14.9 0-26.8-12-26.8-26.8s12-26.8 26.8-26.8 26.8 12 26.8 26.8zm76.1 27.2c-1.7-35.9-9.9-67.7-36.2-93.9-26.2-26.2-58-34.4-93.9-36.2-37-2.1-147.9-2.1-184.9 0-35.8 1.7-67.6 9.9-93.9 36.1s-34.4 58-36.2 93.9c-2.1 37-2.1 147.9 0 184.9 1.7 35.9 9.9 67.7 36.2 93.9s58 34.4 93.9 36.2c37 2.1 147.9 2.1 184.9 0 35.9-1.7 67.7-9.9 93.9-36.2 26.2-26.2 34.4-58 36.2-93.9 2.1-37 2.1-147.8 0-184.8zM398.8 388c-7.8 19.6-22.9 34.7-42.6 42.6-29.5 11.7-99.5 9-132.1 9s-102.7 2.6-132.1-9c-19.6-7.8-34.7-22.9-42.6-42.6-11.7-29.5-9-99.5-9-132.1s-2.6-102.7 9-132.1c7.8-19.6 22.9-34.7 42.6-42.6 29.5-11.7 99.5-9 132.1-9s102.7-2.6 132.1 9c19.6 7.8 34.7 22.9 42.6 42.6 11.7 29.5 9 99.5 9 132.1s2.7 102.7-9 132.1z"/>
    </symbol>
    <symbol viewBox="0 0 576 512" id="i-youtube">
    	<path d="M549.655 124.083c-6.281-23.65-24.787-42.276-48.284-48.597C458.781 64 288 64 288 64S117.22 64 74.629 75.486c-23.497 6.322-42.003 24.947-48.284 48.597-11.412 42.867-11.412 132.305-11.412 132.305s0 89.438 11.412 132.305c6.281 23.65 24.787 41.5 48.284 47.821C117.22 448 288 448 288 448s170.78 0 213.371-11.486c23.497-6.321 42.003-24.171 48.284-47.821 11.412-42.867 11.412-132.305 11.412-132.305s0-89.438-11.412-132.305zm-317.51 213.508V175.185l142.739 81.205-142.739 81.201z"/>
    </symbol>
    <symbol viewBox="0 0 448 512" id="i-linkedin">
    	<path d="M100.28 448H7.4V148.9h92.88zM53.79 108.1C24.09 108.1 0 83.5 0 53.8a53.79 53.79 0 0 1 107.58 0c0 29.7-24.1 54.3-53.79 54.3zM447.9 448h-92.68V302.4c0-34.7-.7-79.2-48.29-79.2-48.29 0-55.69 37.7-55.69 76.7V448h-92.78V148.9h89.08v40.8h1.3c12.4-23.5 42.69-48.3 87.88-48.3 94 0 111.28 61.9 111.28 142.3V448z"/>
    </symbol>
    <symbol viewBox="0 0 512 512" id="i-twitter">
    	<path d="M459.37 151.716c.325 4.548.325 9.097.325 13.645 0 138.72-105.583 298.558-298.558 298.558-59.452 0-114.68-17.219-161.137-47.106 8.447.974 16.568 1.299 25.34 1.299 49.055 0 94.213-16.568 130.274-44.832-46.132-.975-84.792-31.188-98.112-72.772 6.498.974 12.995 1.624 19.818 1.624 9.421 0 18.843-1.3 27.614-3.573-48.081-9.747-84.143-51.98-84.143-102.985v-1.299c13.969 7.797 30.214 12.67 47.431 13.319-28.264-18.843-46.781-51.005-46.781-87.391 0-19.492 5.197-37.36 14.294-52.954 51.655 63.675 129.3 105.258 216.365 109.807-1.624-7.797-2.599-15.918-2.599-24.04 0-57.828 46.782-104.934 104.934-104.934 30.213 0 57.502 12.67 76.67 33.137 23.715-4.548 46.456-13.32 66.599-25.34-7.798 24.366-24.366 44.833-46.132 57.827 21.117-2.273 41.584-8.122 60.426-16.243-14.292 20.791-32.161 39.308-52.628 54.253z"/>
    </symbol>
    <symbol viewBox="0 0 9 12" id="i-z">
        <path d="M5.41693 2.21031C4.12184 2.21031 2.89231 2.21403 1.66278 2.20733C1.4468 2.20584 1.22542 2.18424 1.01716 2.13286C0.470273 1.99732 0.161734 1.59518 0.175618 1.07464C0.188731 0.566754 0.499584 0.198127 1.03799 0.0730176C1.22311 0.029825 1.41749 0.00450518 1.60724 0.00376048C3.4577 -0.00145242 5.30817 3.69799e-05 7.15786 0.00078168C7.24811 0.00078168 7.33836 -0.00070772 7.42706 0.00897338C8.61494 0.138551 9.12943 1.0374 8.47378 1.99881C7.64304 3.21937 6.71125 4.37664 5.81263 5.55326C5.08062 6.51095 4.33318 7.45746 3.59346 8.40919C3.51864 8.50525 3.45076 8.60728 3.32503 8.78228C3.53175 8.78228 3.66365 8.78228 3.79556 8.78228C5.10608 8.78303 6.4166 8.77484 7.72712 8.7875C8.6751 8.79643 9.21813 9.51358 8.91654 10.3409C8.72755 10.86 8.27555 11.0559 7.76568 11.0603C5.68459 11.0774 3.60195 11.0901 1.52162 11.0521C0.558978 11.035 0.103112 10.6455 0.0113212 9.92167C-0.048844 9.44209 0.13628 9.03325 0.436334 8.64973C2.06388 6.5735 3.68062 4.48983 5.30046 2.4084C5.32977 2.37042 5.34982 2.32499 5.41693 2.21031Z"/>
    </symbol>
    <symbol viewBox="0 0 1249 439" id="i-zalo">
        <path d="m649.69 129.68v-23.37h70.02v328.67h-40.06c-16.49 0-29.87-13.32-29.96-29.78-0.01 0.01-0.02 0.01-0.03 0.02-28.2 20.62-63.06 32.87-100.71 32.87-94.3 0-170.76-76.41-170.76-170.65s76.46-170.64 170.76-170.64c37.65 0 72.51 12.24 100.71 32.86 0.01 0.01 0.02 0.01 0.03 0.02zm-289.64-129.06v10.65c0 19.88-2.66 36.1-15.57 55.14l-1.56 1.78c-2.82 3.2-9.44 10.71-12.59 14.78l-224.76 282.11h254.48v39.94c0 16.55-13.43 29.96-29.98 29.96h-329.73v-18.83c0-23.07 5.73-33.35 12.97-44.07l239.61-296.57h-242.59v-74.89h349.72zm444.58 434.36c-13.77 0-24.97-11.19-24.97-24.94v-409.42h74.94v434.36h-49.97zm271.56-340.24c94.95 0 171.91 76.98 171.91 171.79 0 94.9-76.96 171.88-171.91 171.88-94.96 0-171.91-76.98-171.91-171.88 0-94.81 76.95-171.79 171.91-171.79zm-527.24 273.1c55.49 0 100.46-44.94 100.46-100.4 0-55.37-44.97-100.32-100.46-100.32s-100.47 44.95-100.47 100.32c0 55.46 44.98 100.4 100.47 100.4zm527.24-0.17c55.82 0 101.12-45.27 101.12-101.14 0-55.78-45.3-101.05-101.12-101.05-55.91 0-101.13 45.27-101.13 101.05 0 55.87 45.22 101.14 101.13 101.14z" fill-rule="evenodd"/>
    </symbol>
    <symbol viewBox="0 0 19 20" id="i-messenger">
        <path fill-rule="evenodd" clip-rule="evenodd" d="M0 9.5C0 4.25329 4.25329 0 9.5 0C14.7467 0 19 4.25329 19 9.5C19 14.7467 14.7467 19 9.5 19C8.45836 19 7.45496 18.8322 6.51593 18.5217L3.65811 19.4743C3.50564 19.5252 3.33803 19.4996 3.20764 19.4056C3.07726 19.3116 3 19.1607 3 19V16.4282C1.15412 14.6958 0 12.2324 0 9.5ZM12.2767 11.5377L14.9267 7.61822C15.189 7.23215 14.6916 6.81251 14.3117 7.08947L11.4536 9.10375C11.3597 9.16913 11.2454 9.20447 11.128 9.20447C11.0106 9.20447 10.8963 9.16913 10.8024 9.10375L8.68599 7.62661C8.05287 7.19019 7.14842 7.34965 6.72333 7.96233L4.07328 11.8818C3.81099 12.2679 4.30844 12.6875 4.68831 12.4105L7.54638 10.3962C7.64031 10.3309 7.75456 10.2955 7.87198 10.2955C7.9894 10.2955 8.10365 10.3309 8.19759 10.3962L10.314 11.8482C10.9471 12.3098 11.8516 12.1504 12.2767 11.5377Z"/>
    </symbol>
    <symbol viewBox="0 0 512 512" id="i-tiktok">
        <path d="M412.19,118.66a109.27,109.27,0,0,1-9.45-5.5,132.87,132.87,0,0,1-24.27-20.62c-18.1-20.71-24.86-41.72-27.35-56.43h.1C349.14,23.9,350,16,350.13,16H267.69V334.78c0,4.28,0,8.51-.18,12.69,0,.52-.05,1-.08,1.56,0,.23,0,.47-.05.71,0,.06,0,.12,0,.18a70,70,0,0,1-35.22,55.56,68.8,68.8,0,0,1-34.11,9c-38.41,0-69.54-31.32-69.54-70s31.13-70,69.54-70a68.9,68.9,0,0,1,21.41,3.39l.1-83.94a153.14,153.14,0,0,0-118,34.52,161.79,161.79,0,0,0-35.3,43.53c-3.48,6-16.61,30.11-18.2,69.24-1,22.21,5.67,45.22,8.85,54.73v.2c2,5.6,9.75,24.71,22.38,40.82A167.53,167.53,0,0,0,115,470.66v-.2l.2.2C155.11,497.78,199.36,496,199.36,496c7.66-.31,33.32,0,62.46-13.81,32.32-15.31,50.72-38.12,50.72-38.12a158.46,158.46,0,0,0,27.64-45.93c7.46-19.61,9.95-43.13,9.95-52.53V176.49c1,.6,14.32,9.41,14.32,9.41s19.19,12.3,49.13,20.31c21.48,5.7,50.42,6.9,50.42,6.9V131.27C453.86,132.37,433.27,129.17,412.19,118.66Z"/>
    </symbol>
    <symbol viewBox="0 0 20 20" id="i-tel">
        <path d="M19.4293 14.1329L15.0543 12.2579C14.8674 12.1782 14.6597 12.1615 14.4624 12.2101C14.2652 12.2587 14.089 12.37 13.9605 12.5274L12.023 14.8946C8.98232 13.4609 6.53524 11.0138 5.10156 7.97312L7.46875 6.03562C7.62644 5.90737 7.73804 5.73123 7.78668 5.53388C7.83531 5.33653 7.81832 5.1287 7.73828 4.94187L5.86328 0.56687C5.77543 0.365467 5.62007 0.201028 5.42397 0.101908C5.22787 0.00278863 5.00332 -0.0247995 4.78906 0.0239012L0.726562 0.961401C0.519988 1.0091 0.335682 1.12542 0.203725 1.29136C0.0717677 1.4573 -4.75863e-05 1.66306 2.36571e-08 1.87507C2.36571e-08 11.8946 8.12109 20.0001 18.125 20.0001C18.3371 20.0002 18.5429 19.9284 18.709 19.7965C18.875 19.6645 18.9913 19.4802 19.0391 19.2735L19.9766 15.211C20.025 14.9957 19.9968 14.7703 19.8969 14.5735C19.797 14.3767 19.6317 14.2209 19.4293 14.1329Z"/>
    </symbol>
    <symbol viewBox="0 0 10 14" id="i-arrow-right">
        <path d="M8.76172 7.66406L3.44922 12.9766C3.08203 13.3438 2.48828 13.3438 2.125 12.9766L1.24219 12.0938C0.875 11.7266 0.875 11.1328 1.24219 10.7695L5.00781 7.00391L1.24219 3.23828C0.875 2.87109 0.875 2.27734 1.24219 1.91406L2.12109 1.02344C2.48828 0.65625 3.08203 0.65625 3.44531 1.02344L8.75781 6.33594C9.12891 6.70313 9.12891 7.29688 8.76172 7.66406Z"/>
    </symbol>
    <symbol viewBox="0 0 13 8" id="i-arrow-down">
        <path d="M1.22265 0.5H11.2734C11.9687 0.5 12.3164 1.33984 11.8242 1.83203L6.80078 6.85937C6.49609 7.16406 6 7.16406 5.69531 6.85937L0.671872 1.83203C0.179684 1.33984 0.527341 0.5 1.22265 0.5Z"/>
    </symbol>
    <symbol viewBox="0 0 18 16" id="i-hamburger">
        <path d="M0.875 3.15625H17.125C17.4702 3.15625 17.75 2.87645 17.75 2.53125V0.96875C17.75 0.623555 17.4702 0.34375 17.125 0.34375H0.875C0.529805 0.34375 0.25 0.623555 0.25 0.96875V2.53125C0.25 2.87645 0.529805 3.15625 0.875 3.15625ZM0.875 9.40625H17.125C17.4702 9.40625 17.75 9.12645 17.75 8.78125V7.21875C17.75 6.87355 17.4702 6.59375 17.125 6.59375H0.875C0.529805 6.59375 0.25 6.87355 0.25 7.21875V8.78125C0.25 9.12645 0.529805 9.40625 0.875 9.40625ZM0.875 15.6562H17.125C17.4702 15.6562 17.75 15.3764 17.75 15.0312V13.4688C17.75 13.1236 17.4702 12.8438 17.125 12.8438H0.875C0.529805 12.8438 0.25 13.1236 0.25 13.4688V15.0312C0.25 15.3764 0.529805 15.6562 0.875 15.6562Z"/>
    </symbol>
    <symbol viewBox="0 0 320 512" id="i-arrow-up">
        <path d="M182.6 137.4c-12.5-12.5-32.8-12.5-45.3 0l-128 128c-9.2 9.2-11.9 22.9-6.9 34.9s16.6 19.8 29.6 19.8H288c12.9 0 24.6-7.8 29.6-19.8s2.2-25.7-6.9-34.9l-128-128z"/>
    </symbol>
    <symbol viewBox="0 0 14 14" id="i-close">
        <path d="M9.48125 7L13.3902 3.09102C13.8699 2.61133 13.8699 1.83359 13.3902 1.35352L12.5215 0.484766C12.0418 0.00507814 11.2641 0.00507814 10.784 0.484766L6.875 4.39375L2.96602 0.484766C2.48633 0.00507814 1.70859 0.00507814 1.22852 0.484766L0.359766 1.35352C-0.119922 1.8332 -0.119922 2.61094 0.359766 3.09102L4.26875 7L0.359766 10.909C-0.119922 11.3887 -0.119922 12.1664 0.359766 12.6465L1.22852 13.5152C1.7082 13.9949 2.48633 13.9949 2.96602 13.5152L6.875 9.60625L10.784 13.5152C11.2637 13.9949 12.0418 13.9949 12.5215 13.5152L13.3902 12.6465C13.8699 12.1668 13.8699 11.3891 13.3902 10.909L9.48125 7Z"/>
    </symbol>
    <symbol viewBox="0 0 12 13" id="i-home">
        <path d="M12 6.22126V12C11.9999 12.1812 11.9508 12.3591 11.8579 12.5147C11.765 12.6703 11.6317 12.7979 11.4723 12.8839C11.3278 12.9622 11.1657 13.0021 11.0014 12.9999H7.99782C7.86521 12.9999 7.73803 12.9473 7.64426 12.8535C7.5505 12.7597 7.49782 12.6326 7.49782 12.4999V9.49951C7.49782 9.3669 7.44514 9.23973 7.35137 9.14596C7.2576 9.05219 7.13043 8.99951 6.99782 8.99951H4.99782C4.86521 8.99951 4.73803 9.05219 4.64426 9.14596C4.5505 9.23973 4.49782 9.3669 4.49782 9.49951V12.4999C4.49782 12.6326 4.44514 12.7597 4.35137 12.8535C4.2576 12.9473 4.13043 12.9999 3.99782 12.9999H1.00013C0.858363 13.0003 0.718156 12.9704 0.588903 12.9121C0.45965 12.8539 0.344338 12.7687 0.250693 12.6623C0.0863065 12.4721 -0.00285834 12.2285 5.886e-06 11.9771V6.2212C0.000114843 6.08187 0.0292798 5.9441 0.085638 5.81669C0.141996 5.68927 0.224309 5.57501 0.327318 5.4812L5.32688 0.935385C5.51053 0.767169 5.75053 0.673851 5.99957 0.673828C6.24862 0.673805 6.48864 0.767078 6.67232 0.93526L11.6728 5.48126C11.7757 5.57509 11.858 5.68935 11.9144 5.81677C11.9707 5.94418 11.9999 6.08194 12 6.22126Z"/>
    </symbol>
    <symbol viewBox="0 0 21 20" id="i-search">
        <path d="M20.2266 17.293L16.332 13.3984C16.1562 13.2227 15.918 13.125 15.668 13.125H15.0312C16.1094 11.7461 16.75 10.0117 16.75 8.125C16.75 3.63672 13.1133 0 8.625 0C4.13672 0 0.5 3.63672 0.5 8.125C0.5 12.6133 4.13672 16.25 8.625 16.25C10.5117 16.25 12.2461 15.6094 13.625 14.5312V15.168C13.625 15.418 13.7227 15.6562 13.8984 15.832L17.793 19.7266C18.1602 20.0937 18.7539 20.0937 19.1172 19.7266L20.2227 18.6211C20.5898 18.2539 20.5898 17.6602 20.2266 17.293ZM8.625 13.125C5.86328 13.125 3.625 10.8906 3.625 8.125C3.625 5.36328 5.85938 3.125 8.625 3.125C11.3867 3.125 13.625 5.35937 13.625 8.125C13.625 10.8867 11.3906 13.125 8.625 13.125Z"/>
    </symbol>
    <symbol viewBox="0 0 640 512" id="i-wifi">
        <path d="M54.2 202.9C123.2 136.7 216.8 96 320 96s196.8 40.7 265.8 106.9c12.8 12.2 33 11.8 45.2-.9s11.8-33-.9-45.2C549.7 79.5 440.4 32 320 32S90.3 79.5 9.8 156.7C-2.9 169-3.3 189.2 8.9 202s32.5 13.2 45.2 .9zM320 256c56.8 0 108.6 21.1 148.2 56c13.3 11.7 33.5 10.4 45.2-2.8s10.4-33.5-2.8-45.2C459.8 219.2 393 192 320 192s-139.8 27.2-190.5 72c-13.3 11.7-14.5 31.9-2.8 45.2s31.9 14.5 45.2 2.8c39.5-34.9 91.3-56 148.2-56zm64 160a64 64 0 1 0 -128 0 64 64 0 1 0 128 0z"/>
    </symbol>
    <symbol viewBox="0 0 512 512" id="i-error">
        <path d="M256 32c14.2 0 27.3 7.5 34.5 19.8l216 368c7.3 12.4 7.3 27.7 .2 40.1S486.3 480 472 480L40 480c-14.3 0-27.6-7.7-34.7-20.1s-7-27.8 .2-40.1l216-368C228.7 39.5 241.8 32 256 32zm0 128c-13.3 0-24 10.7-24 24l0 112c0 13.3 10.7 24 24 24s24-10.7 24-24l0-112c0-13.3-10.7-24-24-24zm32 224a32 32 0 1 0 -64 0 32 32 0 1 0 64 0z"/>
    </symbol>
    <symbol viewBox="0 0 576 512" id="i-cart">
        <path d="M0 24C0 10.7 10.7 0 24 0L69.5 0c22 0 41.5 12.8 50.6 32l411 0c26.3 0 45.5 25 38.6 50.4l-41 152.3c-8.5 31.4-37 53.3-69.5 53.3l-288.5 0 5.4 28.5c2.2 11.3 12.1 19.5 23.6 19.5L488 336c13.3 0 24 10.7 24 24s-10.7 24-24 24l-288.3 0c-34.6 0-64.3-24.6-70.7-58.5L77.4 54.5c-.7-3.8-4-6.5-7.9-6.5L24 48C10.7 48 0 37.3 0 24zM128 464a48 48 0 1 1 96 0 48 48 0 1 1 -96 0zm336-48a48 48 0 1 1 0 96 48 48 0 1 1 0-96zM252 160c0 11 9 20 20 20l44 0 0 44c0 11 9 20 20 20s20-9 20-20l0-44 44 0c11 0 20-9 20-20s-9-20-20-20l-44 0 0-44c0-11-9-20-20-20s-20 9-20 20l0 44-44 0c-11 0-20 9-20 20z"/>
    </symbol>
    <symbol viewBox="0 0 384 512" id="i-phone">
        <path d="M16 64C16 28.7 44.7 0 80 0L304 0c35.3 0 64 28.7 64 64l0 384c0 35.3-28.7 64-64 64L80 512c-35.3 0-64-28.7-64-64L16 64zM224 448a32 32 0 1 0 -64 0 32 32 0 1 0 64 0zM304 64L80 64l0 320 224 0 0-320z"/>
    </symbol>
</svg>